<svg xmlns="http://www.w3.org/2000/svg" width="256" height="256" viewBox="0 0 256 256" fill="none">
  <defs>
    <linearGradient id="bg" x1="32" y1="24" x2="224" y2="232" gradientUnits="userSpaceOnUse">
      <stop offset="0" stop-color="#123B78"/>
      <stop offset="1" stop-color="#091A33"/>
    </linearGradient>
    <linearGradient id="ice" x1="78" y1="62" x2="182" y2="192" gradientUnits="userSpaceOnUse">
      <stop offset="0" stop-color="#F8FBFF"/>
      <stop offset="1" stop-color="#A9D4FF"/>
    </linearGradient>
  </defs>
  <rect x="20" y="20" width="216" height="216" rx="52" fill="url(#bg)"/>
  <path d="M79 57C91 68 108 86 128 111C146 133 161 156 171 174" stroke="#081426" stroke-width="28" stroke-linecap="round"/>
  <path d="M87 49C99 60 116 78 136 103C154 125 169 148 179 166" stroke="url(#ice)" stroke-width="18" stroke-linecap="round"/>
  <path d="M161 165L208 185C214 187 218 193 218 199C218 207 212 213 204 213H151" stroke="#081426" stroke-width="26" stroke-linecap="round" stroke-linejoin="round"/>
  <path d="M164 156L211 176C217 178 221 184 221 190C221 198 215 204 207 204H155" stroke="url(#ice)" stroke-width="16" stroke-linecap="round" stroke-linejoin="round"/>
  <circle cx="82" cy="187" r="23" fill="#0A1018"/>
  <circle cx="82" cy="187" r="15" fill="#1B2838"/>
  <path d="M55 124L70 112" stroke="#6AB5FF" stroke-width="8" stroke-linecap="round" opacity="0.6"/>
  <path d="M53 146L74 129" stroke="#6AB5FF" stroke-width="8" stroke-linecap="round" opacity="0.35"/>
</svg>
